<?xml version="1.0" standalone="no"?>
<!DOCTYPE svg PUBLIC "-//W3C//DTD SVG 20010904//EN"
 "http://www.w3.org/TR/2001/REC-SVG-20010904/DTD/svg10.dtd">
<svg version="1.0" xmlns="http://www.w3.org/2000/svg"
 width="256.000000pt" height="256.000000pt" viewBox="0 0 256.000000 256.000000"
 preserveAspectRatio="xMidYMid meet">
<metadata>
Created by potrace 1.14, written by Peter Selinger 2001-2017
</metadata>
<g transform="translate(0.000000,256.000000) scale(0.100000,-0.100000)"
fill="#000000" stroke="none">
<path d="M1196 2158 c-9 -5 -27 -8 -38 -5 -35 10 -93 -31 -160 -111 -36 -42
-71 -88 -78 -101 -15 -30 -18 -104 -7 -238 8 -100 7 -103 -13 -103 -33 0 -35
-28 -12 -118 25 -96 55 -152 82 -152 19 0 28 -28 50 -164 5 -32 11 -61 14 -63
2 -2 34 5 71 16 76 24 227 29 270 9 14 -6 27 -9 30 -6 3 3 16 55 29 116 17 78
31 120 50 144 34 45 54 105 61 181 6 65 2 77 -29 94 -16 9 -20 23 -22 89 -3
115 -20 248 -37 281 -8 15 -26 37 -39 49 -29 26 -124 72 -160 78 -15 3 -31 7
-36 9 -4 3 -16 1 -26 -5z"/>
<path d="M1105 1084 c-69 -15 -71 -16 -160 -107 -83 -85 -100 -97 -220 -157
-135 -68 -198 -107 -276 -171 -46 -38 -46 -39 -53 -116 -8 -94 -28 -205 -67
-373 -16 -69 -29 -133 -29 -142 0 -17 52 -18 945 -18 553 0 945 4 945 9 0 5
-20 107 -44 228 -24 120 -47 247 -51 283 -11 99 -41 185 -73 210 -39 32 -193
104 -297 140 -118 41 -167 71 -241 146 -42 42 -74 66 -100 73 -54 15 -195 12
-279 -5z"/>
</g>
</svg>
